<svg xmlns="http://www.w3.org/2000/svg" xmlns:xlink="http://www.w3.org/1999/xlink" width="500" zoomAndPan="magnify" viewBox="0 0 375 374.999991" height="500" preserveAspectRatio="xMidYMid meet" version="1.0"><defs><clipPath id="61356c4448"><path d="M 11 58 L 264.75 58 L 264.75 294 L 11 294 Z M 11 58 " clip-rule="nonzero"/></clipPath><clipPath id="c1a3894a74"><path d="M 0 48.058594 L 256 48.058594 L 256 287 L 0 287 Z M 0 48.058594 " clip-rule="nonzero"/></clipPath><clipPath id="7f0516d971"><path d="M 193 69 L 375 69 L 375 267.433594 L 193 267.433594 Z M 193 69 " clip-rule="nonzero"/></clipPath><clipPath id="320557f8f7"><path d="M 187.5 62.683594 L 375 62.683594 L 375 264 L 187.5 264 Z M 187.5 62.683594 " clip-rule="nonzero"/></clipPath></defs><g clip-path="url(#61356c4448)"><path fill="#000000" d="M 68.550781 146.6875 L 79.785156 171.492188 L 54.703125 246.71875 L 36.820312 257.5625 L 27.003906 293.882812 L 110.875 283.425781 L 116.96875 161.175781 L 103.757812 129.445312 L 142.386719 174.550781 L 166.828125 120.824219 L 163.882812 152.109375 L 197.03125 280.921875 L 264.46875 293.882812 L 211.714844 149.605469 L 225.285156 111.144531 L 231.429688 113.675781 L 242.886719 80.195312 L 211.910156 58.417969 L 139.410156 118.292969 L 56.09375 63.453125 L 11.957031 106.167969 L 39.015625 134.949219 L 30.171875 146.101562 L 54.171875 165.097656 Z M 68.550781 146.6875 " fill-opacity="1" fill-rule="nonzero"/></g><path fill="#ffdf06" d="M 58.121094 137.84375 L 69.355469 162.621094 L 44.273438 237.875 L 26.417969 248.71875 L 16.574219 285.039062 L 100.476562 274.554688 L 106.539062 152.332031 L 93.328125 120.574219 L 131.984375 165.707031 L 156.429688 111.980469 L 153.480469 143.265625 L 186.601562 272.078125 L 254.039062 285.039062 L 201.285156 140.761719 L 214.882812 102.300781 L 221.03125 104.804688 L 232.460938 71.351562 L 201.480469 49.574219 L 129.007812 109.449219 L 45.664062 54.609375 L 1.53125 97.324219 L 28.589844 126.109375 L 19.773438 137.230469 L 43.746094 156.226562 Z M 58.121094 137.84375 " fill-opacity="1" fill-rule="nonzero"/><g clip-path="url(#c1a3894a74)"><path fill="#000000" d="M 254.039062 286.429688 C 253.957031 286.429688 253.875 286.429688 253.789062 286.402344 L 186.351562 273.441406 C 185.824219 273.332031 185.40625 272.941406 185.265625 272.414062 L 152.117188 143.601562 C 152.089844 143.433594 152.0625 143.292969 152.089844 143.125 L 154.257812 120.074219 L 133.234375 166.292969 C 133.039062 166.738281 132.625 167.015625 132.152344 167.097656 C 131.679688 167.15625 131.207031 166.988281 130.898438 166.625 L 98 128.164062 L 107.816406 151.804688 C 107.902344 152 107.929688 152.191406 107.929688 152.414062 L 101.867188 274.664062 C 101.839844 275.332031 101.308594 275.890625 100.644531 275.972656 L 16.742188 286.429688 C 16.269531 286.484375 15.824219 286.316406 15.519531 285.957031 C 15.210938 285.59375 15.101562 285.121094 15.210938 284.675781 L 25.054688 248.359375 C 25.140625 248.023438 25.363281 247.71875 25.667969 247.523438 L 43.105469 236.957031 L 67.855469 162.734375 L 57.816406 140.511719 L 44.855469 157.113281 C 44.632812 157.394531 44.300781 157.585938 43.9375 157.644531 C 43.578125 157.699219 43.1875 157.585938 42.910156 157.367188 L 18.910156 138.371094 C 18.632812 138.148438 18.4375 137.816406 18.382812 137.453125 C 18.328125 137.09375 18.4375 136.730469 18.660156 136.425781 L 26.753906 126.246094 L 0.527344 98.269531 C 0 97.714844 0.0273438 96.851562 0.585938 96.324219 L 44.71875 53.609375 C 45.191406 53.164062 45.914062 53.078125 46.441406 53.441406 L 128.898438 107.726562 L 200.589844 48.492188 C 201.0625 48.101562 201.757812 48.074219 202.285156 48.433594 L 233.265625 70.210938 C 233.765625 70.570312 233.988281 71.210938 233.792969 71.796875 L 222.335938 105.277344 C 222.226562 105.640625 221.949219 105.945312 221.585938 106.085938 C 221.226562 106.25 220.835938 106.25 220.472656 106.113281 L 215.691406 104.164062 L 202.757812 140.761719 L 255.347656 284.566406 C 255.515625 285.039062 255.429688 285.566406 255.097656 285.957031 C 254.847656 286.261719 254.457031 286.429688 254.039062 286.429688 Z M 27.613281 249.609375 L 18.464844 283.398438 L 99.140625 273.332031 L 105.148438 152.582031 L 92.078125 121.128906 C 91.828125 120.488281 92.050781 119.765625 92.632812 119.40625 C 93.21875 119.042969 93.96875 119.15625 94.414062 119.683594 L 131.621094 163.148438 L 155.175781 111.394531 C 155.457031 110.785156 156.152344 110.449219 156.789062 110.617188 C 157.457031 110.785156 157.875 111.425781 157.820312 112.089844 L 154.898438 143.15625 L 187.742188 270.882812 L 251.898438 283.203125 L 199.976562 141.234375 C 199.867188 140.929688 199.867188 140.597656 199.976562 140.289062 L 213.578125 101.828125 C 213.714844 101.46875 213.964844 101.191406 214.328125 101.023438 C 214.660156 100.855469 215.078125 100.855469 215.414062 100.996094 L 220.195312 102.941406 L 230.820312 71.851562 L 201.5625 51.328125 L 129.898438 110.507812 C 129.425781 110.894531 128.757812 110.921875 128.257812 110.589844 L 45.859375 56.359375 L 3.476562 97.378906 L 29.589844 125.160156 C 30.0625 125.664062 30.089844 126.441406 29.671875 126.96875 L 21.71875 137.007812 L 43.523438 154.277344 L 57.039062 136.980469 C 57.34375 136.589844 57.816406 136.398438 58.289062 136.453125 C 58.761719 136.507812 59.179688 136.8125 59.402344 137.257812 L 70.636719 162.066406 C 70.773438 162.371094 70.804688 162.761719 70.691406 163.066406 L 45.609375 238.292969 C 45.496094 238.597656 45.300781 238.875 45.023438 239.042969 Z M 27.613281 249.609375 " fill-opacity="1" fill-rule="nonzero"/></g><path fill="#000000" d="M 56.871094 138.425781 L 40.574219 99.328125 L 59.402344 137.257812 C 60.179688 138.984375 57.675781 140.152344 56.871094 138.425781 Z M 56.871094 138.425781 " fill-opacity="1" fill-rule="nonzero"/><path fill="#000000" d="M 213.550781 101.859375 L 221.585938 82.058594 L 216.191406 102.71875 C 215.636719 104.609375 212.910156 103.722656 213.550781 101.859375 Z M 213.550781 101.859375 " fill-opacity="1" fill-rule="nonzero"/><path fill="#000000" d="M 45.609375 238.261719 L 36.097656 265.238281 L 42.9375 237.484375 C 43.464844 235.621094 46.164062 236.429688 45.609375 238.261719 Z M 45.609375 238.261719 " fill-opacity="1" fill-rule="nonzero"/><path fill="#000000" d="M 92.160156 121.324219 L 86.070312 108.808594 L 94.523438 119.851562 C 95.691406 121.519531 93.132812 123.105469 92.160156 121.324219 Z M 92.160156 121.324219 " fill-opacity="1" fill-rule="nonzero"/><path fill="#000000" d="M 155.066406 111.644531 L 159.375 99.828125 L 157.761719 112.3125 C 157.652344 113.09375 156.957031 113.621094 156.207031 113.507812 C 155.316406 113.398438 154.761719 112.453125 155.066406 111.644531 Z M 155.066406 111.644531 " fill-opacity="1" fill-rule="nonzero"/><g clip-path="url(#7f0516d971)"><path fill="#000000" d="M 379.335938 69.226562 L 315.644531 90.261719 L 304.175781 116.765625 L 323.71875 109.054688 L 328.601562 100.414062 L 337.996094 95.726562 L 303.007812 152.140625 L 300.371094 202.832031 L 277.390625 77.238281 L 246.679688 95.835938 L 203.65625 200.761719 L 193.742188 204.929688 L 206.289062 267.648438 L 251.300781 180.671875 L 241.839844 184.667969 L 260.179688 139.679688 L 290.414062 260.953125 L 329.960938 249.054688 L 324.304688 163.546875 Z M 379.335938 69.226562 " fill-opacity="1" fill-rule="nonzero"/></g><path fill="#ffdf06" d="M 374.261719 63.890625 L 310.566406 84.929688 L 299.097656 111.429688 L 318.644531 103.71875 L 323.527344 95.078125 L 332.921875 90.394531 L 297.933594 146.808594 L 295.296875 197.5 L 272.316406 71.90625 L 241.605469 90.5 L 198.558594 195.425781 L 188.667969 199.59375 L 201.214844 262.316406 L 246.226562 175.339844 L 236.765625 179.335938 L 255.101562 134.324219 L 285.339844 255.621094 L 324.886719 243.71875 L 319.226562 158.210938 Z M 374.261719 63.890625 " fill-opacity="1" fill-rule="nonzero"/><g clip-path="url(#320557f8f7)"><path fill="#000000" d="M 201.214844 263.394531 C 201.171875 263.394531 201.105469 263.394531 201.0625 263.394531 C 200.609375 263.332031 200.242188 262.984375 200.15625 262.53125 L 187.609375 199.808594 C 187.5 199.3125 187.78125 198.792969 188.257812 198.601562 L 197.738281 194.605469 L 240.589844 90.089844 C 240.675781 89.875 240.824219 89.703125 241.019531 89.570312 L 271.734375 70.953125 C 272.035156 70.761719 272.402344 70.738281 272.726562 70.890625 C 273.050781 71.039062 273.289062 71.320312 273.351562 71.6875 L 294.671875 188.210938 L 296.832031 146.722656 C 296.832031 146.546875 296.894531 146.355469 296.980469 146.203125 L 330.003906 93.050781 L 324.304688 95.902344 L 319.574219 104.257812 C 319.445312 104.476562 319.25 104.648438 319.035156 104.734375 L 299.488281 112.445312 C 299.078125 112.597656 298.625 112.507812 298.320312 112.1875 C 298.019531 111.863281 297.933594 111.40625 298.105469 110.996094 L 309.574219 84.496094 C 309.703125 84.214844 309.941406 84 310.222656 83.890625 L 373.914062 62.875 C 374.347656 62.726562 374.800781 62.875 375.101562 63.222656 C 375.382812 63.566406 375.425781 64.066406 375.1875 64.453125 L 320.328125 158.492188 L 325.964844 243.65625 C 326.011719 244.152344 325.6875 244.605469 325.210938 244.757812 L 285.644531 256.65625 C 285.363281 256.742188 285.058594 256.699219 284.800781 256.570312 C 284.542969 256.417969 284.367188 256.179688 284.28125 255.902344 L 254.863281 137.800781 L 238.753906 177.324219 L 245.816406 174.34375 C 246.226562 174.171875 246.722656 174.28125 247.023438 174.605469 C 247.328125 174.929688 247.390625 175.425781 247.199219 175.835938 L 202.164062 262.8125 C 201.972656 263.15625 201.605469 263.394531 201.214844 263.394531 Z M 189.898438 200.242188 L 201.667969 259.074219 L 243.894531 177.5 L 237.175781 180.328125 C 236.765625 180.5 236.3125 180.414062 235.988281 180.089844 C 235.6875 179.789062 235.578125 179.3125 235.75 178.925781 L 254.109375 133.933594 C 254.28125 133.503906 254.714844 133.222656 255.1875 133.265625 C 255.664062 133.308594 256.054688 133.632812 256.160156 134.085938 L 286.117188 254.28125 L 323.761719 242.941406 L 318.148438 158.277344 C 318.125 158.058594 318.191406 157.84375 318.300781 157.648438 L 371.882812 65.8125 L 311.367188 85.8125 L 301.128906 109.464844 L 317.890625 102.855469 L 322.574219 94.539062 C 322.683594 94.34375 322.835938 94.195312 323.027344 94.109375 L 332.425781 89.421875 C 332.855469 89.203125 333.375 89.292969 333.699219 89.660156 C 334.023438 90.027344 334.066406 90.542969 333.828125 90.953125 L 299.011719 147.132812 L 296.375 197.5625 C 296.355469 198.105469 295.921875 198.558594 295.363281 198.578125 C 294.820312 198.621094 294.324219 198.234375 294.238281 197.691406 L 271.539062 73.632812 L 242.46875 91.234375 L 199.574219 195.835938 C 199.464844 196.09375 199.25 196.3125 198.992188 196.417969 Z M 189.898438 200.242188 " fill-opacity="1" fill-rule="nonzero"/></g><path fill="#000000" d="M 296.375 197.433594 L 296.117188 211.128906 L 294.21875 197.5625 Z M 296.375 197.433594 " fill-opacity="1" fill-rule="nonzero"/><path fill="#000000" d="M 254.066406 134.042969 L 260.113281 115.835938 L 256.160156 134.625 Z M 254.066406 134.042969 " fill-opacity="1" fill-rule="nonzero"/><path fill="#000000" d="M 332.25 89.527344 L 341.214844 83.871094 L 333.589844 91.234375 Z M 332.25 89.527344 " fill-opacity="1" fill-rule="nonzero"/></svg>